HIERARCHY
ROOT root
{
	OFFSET	0	13.1	24.9
	CHANNELS 6  Xposition Yposition Zposition Xrotation Yrotation Zrotation
	JOINT spine_1
	{
		OFFSET	0	9.99999	0
		CHANNELS 3  Xrotation Yrotation Zrotation
		JOINT spine_2
		{
			OFFSET	0	112	-10
			CHANNELS 3  Xrotation Yrotation Zrotation
			JOINT spine_3
			{
				OFFSET	0	206.5	19.3
				CHANNELS 3  Xrotation Yrotation Zrotation
				JOINT spine_4
				{
					OFFSET	0	110.4	14.6
					CHANNELS 3  Xrotation Yrotation Zrotation
					JOINT neck_1
					{
						OFFSET	0	71.8	-50.3
						CHANNELS 3  Xrotation Yrotation Zrotation
						JOINT neck_2
						{
							OFFSET	0	86.2	-25.8
							CHANNELS 3  Xrotation Yrotation Zrotation
							JOINT head_ee
							{
								OFFSET	0	179.8	-8.7
								CHANNELS 3  Xrotation Yrotation Zrotation
								End Site
								{
									OFFSET	1	0	0
								}
							}
						}
					}
					JOINT left_clavicle
					{
						OFFSET	-43.2	22.4	-70.8
						CHANNELS 3  Xrotation Yrotation Zrotation
						JOINT left_shoulder
						{
							OFFSET	-93.9	-5.79999	48.7
							CHANNELS 3  Xrotation Yrotation Zrotation
							JOINT left_elbow
							{
								OFFSET	-291.4	-30.8	15.2
								CHANNELS 3  Xrotation Yrotation Zrotation
								JOINT left_lowarm_twist
								{
									OFFSET	-110.7	-3.89999	13.6
									CHANNELS 3  Xrotation Yrotation Zrotation
									JOINT left_hand
									{
										OFFSET	-110.7	-3.89999	13.6
										CHANNELS 3  Xrotation Yrotation Zrotation
										JOINT left_ee
										{
											OFFSET	-80.8	-5.10001	12.1
											CHANNELS 3  Xrotation Yrotation Zrotation
											End Site
											{
												OFFSET	1	0	0
											}
										}
									}
								}
							}
						}
					}
					JOINT right_clavicle
					{
						OFFSET	43.2	22.4	-70.8
						CHANNELS 3  Xrotation Yrotation Zrotation
						JOINT right_shoulder
						{
							OFFSET	93.9	-5.79999	48.7
							CHANNELS 3  Xrotation Yrotation Zrotation
							JOINT right_elbow
							{
								OFFSET	291.4	-30.8	15.2
								CHANNELS 3  Xrotation Yrotation Zrotation
								JOINT right_lowarm_twist
								{
									OFFSET	110.7	-3.89999	13.6
									CHANNELS 3  Xrotation Yrotation Zrotation
									JOINT right_hand
									{
										OFFSET	110.7	-3.89999	13.6
										CHANNELS 3  Xrotation Yrotation Zrotation
										JOINT right_ee
										{
											OFFSET	80.8	-5.10001	12.1
											CHANNELS 3  Xrotation Yrotation Zrotation
											End Site
											{
												OFFSET	1	0	0
											}
										}
									}
								}
							}
						}
					}
				}
			}
		}
	}
	JOINT left_hip
	{
		OFFSET	-82.8	-127.5	0.300001
		CHANNELS 3  Xrotation Yrotation Zrotation
		JOINT left_knee
		{
			OFFSET	-28.2	-396.7	2.2
			CHANNELS 3  Xrotation Yrotation Zrotation
			JOINT left_ankle
			{
				OFFSET	-11.7	-411.3	35.4
				CHANNELS 3  Xrotation Yrotation Zrotation
				JOINT left_toes
				{
					OFFSET	0	-60	-88.6
					CHANNELS 3  Xrotation Yrotation Zrotation
					JOINT left_foot_ee
					{
						OFFSET	-22.5	-16.5	-42.2
						CHANNELS 3  Xrotation Yrotation Zrotation
						End Site
						{
							OFFSET	1	0	0
						}
					}
				}
			}
		}
	}
	JOINT right_hip
	{
		OFFSET	82.8	-127.5	0.300001
		CHANNELS 3  Xrotation Yrotation Zrotation
		JOINT right_knee
		{
			OFFSET	28.2	-396.7	2.2
			CHANNELS 3  Xrotation Yrotation Zrotation
			JOINT right_ankle
			{
				OFFSET	11.7	-411.3	35.4
				CHANNELS 3  Xrotation Yrotation Zrotation
				JOINT right_toes
				{
					OFFSET	0	-60	-88.6
					CHANNELS 3  Xrotation Yrotation Zrotation
					JOINT right_foot_ee
					{
						OFFSET	22.5	-16.5	-42.2
						CHANNELS 3  Xrotation Yrotation Zrotation
						End Site
						{
							OFFSET	1	0	0
						}
					}
				}
			}
		}
	}
}
MOTION
Frames: 8
Frame Time: 0.02
894.317 697.575 -1516.62 8.11509 71.1877 5.84417 1.29702 -0.775371 -2.8568 1.30136 -0.592093 -2.9003 1.33243 -0.0384326 -2.95982 1.32056 -0.505197 -2.91668 -6.68442 -4.24908 1.29699 -6.67339 -8.82257 0.460623 -0.0 0.0 -0.0 12.534 -26.8156 24.5072 42.3479 35.7872 41.7099 0.718133 -19.5826 0.123933 23.5879 0.219657 -2.98392 3.55689 5.17531 26.5206 -0.0 0.0 -0.0 5.44561 -19.811 -10.4011 -18.3482 6.8101 -58.6569 0.666744 18.2777 -0.10726 -3.90616 0.153901 -0.474891 3.46749 18.4101 -15.407 0.0 0.0 0.0 17.8444 10.2491 -23.1145 -30.6402 0.0190145 4.64649 11.991 -29.5451 -2.12633 0.271278 -0.0 -0.0 -0.0 0.0 -0.0 17.5514 -3.9357 -5.42421 -45.2212 0.8319 -6.7132 33.4793 -22.7928 4.44219 10.1314 -0.0 -0.0 0.0 0.0 0.0 
885.41 697.396 -1520.47 7.12126 69.5141 7.69818 1.34116 -0.753912 -3.15633 1.34653 -0.551645 -3.19784 1.37848 0.0545076 -3.24457 1.36408 -0.458327 -3.21253 -6.80068 -4.68469 1.04768 -6.79239 -9.45274 0.114699 -0.0 0.0 -0.0 12.9461 -26.5839 25.4829 40.191 35.1441 42.4437 0.973551 -25.7461 0.222496 25.3688 0.186127 -3.20894 3.74876 6.44417 28.4065 -0.0 0.0 -0.0 5.24977 -19.3284 -10.1209 -17.8211 6.13945 -58.4159 0.601752 16.5989 -0.0877812 -5.06046 0.205551 -0.613135 3.37621 17.4219 -15.2783 0.0 0.0 0.0 18.1007 11.1215 -24.3464 -31.6741 -0.0236906 4.79941 12.4729 -26.9359 -2.13524 -0.180133 0.0 0.0 -0.0 0.0 -0.0 20.0501 -4.36749 -5.86015 -43.8957 0.733023 -6.53483 30.3702 -25.0063 4.15012 8.76075 -0.0 -0.0 0.0 0.0 0.0 
878.689 696.37 -1522.6 6.46733 68.6898 8.65475 1.32117 -0.832178 -3.09861 1.32629 -0.63342 -3.14522 1.3623 -0.0348759 -3.20812 1.34834 -0.540844 -3.16244 -7.05232 -5.47023 0.813557 -7.04797 -10.7508 -0.30017 -0.0 0.0 -0.0 13.0109 -25.4791 25.7626 39.3324 34.58 43.3985 1.17584 -30.2186 0.31748 26.5558 0.159902 -3.35829 3.85432 7.75893 29.6594 -0.0 0.0 -0.0 5.32832 -17.1653 -10.3064 -17.0313 3.14206 -59.207 0.488893 13.6142 -0.0583586 -6.14237 0.256486 -0.741754 3.22935 16.4999 -14.7245 0.0 0.0 0.0 18.336 11.2228 -24.8688 -32.997 -0.0823461 4.99392 10.487 -24.8252 -1.76744 -1.15284 0.0 0.0 -0.0 0.0 -0.0 21.4893 -4.82631 -5.49465 -39.6712 0.445981 -5.95221 29.0191 -24.5823 3.98345 6.84942 -0.0 -0.0 0.0 0.0 0.0 
869.469 689.78 -1532.58 8.41264 68.6265 6.44486 0.983114 -0.777549 -2.91044 0.987633 -0.590858 -2.95396 1.01965 -0.0107034 -3.01241 1.00732 -0.486109 -2.97298 -5.27822 -5.01474 0.223085 -5.26074 -9.40031 -0.660924 -0.0 0.0 -0.0 11.4474 -26.6013 22.0556 39.9652 34.3798 44.8874 1.01772 -26.7543 0.242032 27.3828 0.139802 -3.46203 4.45895 4.83545 33.3147 -0.0 0.0 -0.0 4.67349 -18.7314 -9.25475 -19.2872 7.32333 -60.1736 0.601771 16.5994 -0.0877868 -5.7916 0.239706 -0.700158 3.09196 14.509 -14.7415 0.0 0.0 0.0 16.5947 11.7512 -25.1982 -32.419 -0.056164 4.9091 13.6273 -29.2593 -2.3887 1.17458 -0.0 -0.0 -0.0 0.0 -0.0 23.243 -6.60598 -3.86568 -35.3196 0.196158 -5.33203 25.5774 -24.5284 3.56989 7.43963 -0.0 -0.0 0.0 0.0 0.0 
863.693 691.638 -1534.7 5.26803 68.4576 10.1228 1.2028 -0.970952 -3.20273 1.20818 -0.765298 -3.25794 1.25332 -0.137231 -3.34372 1.23833 -0.6633 -3.28021 -7.04341 -6.3563 -0.234581 -7.04343 -11.6428 -1.52792 -0.0 0.0 -0.0 12.424 -24.0791 24.5586 38.3208 33.843 45.0448 1.24646 -31.6924 0.353811 27.4716 0.137555 -3.47315 4.32471 7.24719 33.1193 -0.0 0.0 -0.0 4.89073 -16.6998 -9.62241 -17.0065 2.96168 -59.769 0.450312 12.5754 -0.0496173 -6.61746 0.27962 -0.79793 2.97018 14.396 -13.9536 0.0 0.0 0.0 18.2739 11.4691 -26.2393 -33.8208 -0.121143 5.11437 11.0001 -25.3058 -1.85984 -1.05864 0.0 0.0 -0.0 0.0 -0.0 23.1924 -5.63378 -4.97306 -33.739 0.11721 -5.10242 25.3156 -25.8171 3.56437 6.52588 -0.0 -0.0 0.0 0.0 0.0 
852.359 691.522 -1543.0 4.3896 68.2269 10.7865 1.02905 -0.821148 -3.24262 1.03469 -0.613263 -3.28823 1.07168 0.0286683 -3.34475 1.05642 -0.499638 -3.30738 -5.85741 -6.16493 0.177656 -5.83967 -11.5188 -0.964717 -0.0 0.0 -0.0 11.7924 -26.1245 22.8936 37.1846 32.453 46.1981 1.15759 -29.8304 0.308349 27.4642 0.137744 -3.47222 4.83745 7.2946 37.2967 -0.0 0.0 -0.0 4.53706 -18.4042 -9.04926 -19.7814 5.43537 -59.6767 0.579522 16.0178 -0.0815389 -6.04006 0.251566 -0.729633 2.89059 13.9118 -13.6332 0.0 0.0 0.0 16.1199 12.3074 -25.9904 -30.5706 0.0217898 4.63617 11.8911 -27.7939 -2.06266 -1.83015 0.0 0.0 -0.0 0.0 -0.0 24.1168 -5.5273 -5.10107 -32.0351 0.0392506 -4.85263 22.8226 -27.0846 3.2754 5.2623 -0.0 -0.0 0.0 0.0 0.0 
847.546 688.688 -1544.75 3.88046 68.3536 11.0386 1.02954 -0.894154 -3.1903 1.03493 -0.689445 -3.24066 1.07576 -0.0555933 -3.31264 1.06091 -0.577784 -3.26239 -5.63191 -6.59412 0.0142924 -5.60932 -12.1773 -1.18756 -0.0 0.0 -0.0 11.625 -26.0129 22.5256 36.5682 31.3683 46.942 1.10587 -28.7137 0.28306 28.4771 0.110906 -3.59883 5.08747 7.20995 39.3871 -0.0 0.0 -0.0 4.38311 -16.4364 -8.81806 -19.8941 4.80461 -60.5094 0.524619 14.568 -0.0670569 -5.87039 0.243453 -0.70951 2.85997 13.9372 -13.4101 0.0 0.0 0.0 16.2468 13.0898 -26.1041 -30.8494 0.0105973 4.67749 9.68514 -25.6711 -1.65369 -2.14344 0.0 0.0 -0.0 0.0 -0.0 25.0747 -6.46276 -4.40883 -32.2149 0.0471225 -4.87908 22.2345 -27.4568 3.20681 5.36579 -0.0 -0.0 0.0 0.0 0.0 
840.09 684.259 -1552.34 3.71963 68.82 10.8333 0.967452 -0.859168 -3.15583 0.972753 -0.656719 -3.20404 1.01134 -0.0267593 -3.27047 0.996829 -0.542661 -3.2253 -4.46387 -6.84493 0.169764 -4.41899 -12.6782 -0.956715 -0.0 0.0 -0.0 11.3381 -27.1912 21.7395 35.1006 30.6891 48.0351 1.11687 -28.9534 0.288367 27.7186 0.131213 -3.50407 5.37576 6.43036 41.6316 -0.0 0.0 -0.0 4.22037 -17.0332 -8.56167 -19.847 4.17503 -61.0046 0.513777 14.2794 -0.0643562 -6.08795 0.253866 -0.735307 2.84266 12.7917 -13.8254 0.0 0.0 0.0 15.4103 14.5344 -26.4366 -29.3767 0.0674338 4.45864 9.40648 -26.0476 -1.61505 -2.35502 0.0 0.0 -0.0 0.0 -0.0 25.4658 -6.87014 -3.66401 -29.5018 -0.0628261 -4.47729 21.364 -27.5439 3.0944 5.84423 -0.0 -0.0 0.0 0.0 0.0 
